<svg xmlns="http://www.w3.org/2000/svg" xmlns:xlink="http://www.w3.org/1999/xlink" xml:space="preserve" version="1.1" style="shape-rendering:geometricPrecision;text-rendering:geometricPrecision;image-rendering:optimizeQuality;" viewBox="0 0 117 375" x="0px" y="0px" fill-rule="evenodd" clip-rule="evenodd"><defs><style type="text/css">.fil0 {fill:black}</style></defs><g><path class="fil0" d="M90 8c19,28 28,129 -9,145 0,-97 -47,-30 -15,-2 3,4 6,6 13,6 -2,26 -20,66 -41,65 13,-38 -9,-79 -25,-38 -7,16 -1,39 23,41 -5,11 -4,17 -15,40 -4,7 -20,32 -21,35 18,-11 37,-75 38,-75 6,-2 7,0 17,-9 25,-22 24,-57 26,-59 1,-1 13,-3 21,-26 14,-39 3,-88 -9,-127 11,3 19,11 24,12 -1,-2 -25,-23 -32,-14l-6 35c4,8 7,-17 11,-29zm-77 189c0,14 10,25 23,25 15,-68 -23,-57 -23,-25zm66 -44c1,-18 -7,-58 -17,-43 -12,20 5,46 17,43z"/></g><text x="0" y="315" fill="#000000" font-size="5px" font-weight="bold" font-family="'Helvetica Neue', Helvetica, Arial-Unicode, Arial, Sans-serif">Created by Freshicon</text><text x="0" y="320" fill="#000000" font-size="5px" font-weight="bold" font-family="'Helvetica Neue', Helvetica, Arial-Unicode, Arial, Sans-serif">from the Noun Project</text></svg>